<svg xmlns="http://www.w3.org/2000/svg" viewBox="0 0 540 420" role="img" aria-label="81 Punkte mit genau 31 Abständen"><line x1="109.392" y1="291.818" x2="411.713" y2="95.455" stroke="#c75032" stroke-width="2" opacity=".75"/><line x1="109.392" y1="291.818" x2="430.608" y2="128.182" stroke="#c75032" stroke-width="2" opacity=".75"/><line x1="260.552" y1="30.000" x2="279.448" y2="390.000" stroke="#c75032" stroke-width="2" opacity=".75"/><line x1="298.343" y1="30.000" x2="279.448" y2="390.000" stroke="#c75032" stroke-width="2" opacity=".75"/><circle cx="109.392" cy="160.909" r="3.6" fill="#19272a"/><circle cx="128.287" cy="128.182" r="3.6" fill="#19272a"/><circle cx="147.182" cy="95.455" r="3.6" fill="#19272a"/><circle cx="109.392" cy="226.364" r="3.6" fill="#19272a"/><circle cx="128.287" cy="193.636" r="3.6" fill="#19272a"/><circle cx="147.182" cy="160.909" r="3.6" fill="#19272a"/><circle cx="166.077" cy="128.182" r="3.6" fill="#19272a"/><circle cx="184.972" cy="95.455" r="3.6" fill="#19272a"/><circle cx="203.867" cy="62.727" r="3.6" fill="#19272a"/><circle cx="109.392" cy="291.818" r="3.6" fill="#19272a"/><circle cx="128.287" cy="259.091" r="3.6" fill="#19272a"/><circle cx="147.182" cy="226.364" r="3.6" fill="#19272a"/><circle cx="166.077" cy="193.636" r="3.6" fill="#19272a"/><circle cx="184.972" cy="160.909" r="3.6" fill="#19272a"/><circle cx="203.867" cy="128.182" r="3.6" fill="#19272a"/><circle cx="222.762" cy="95.455" r="3.6" fill="#19272a"/><circle cx="241.657" cy="62.727" r="3.6" fill="#19272a"/><circle cx="260.552" cy="30.000" r="3.6" fill="#19272a"/><circle cx="147.182" cy="291.818" r="3.6" fill="#19272a"/><circle cx="166.077" cy="259.091" r="3.6" fill="#19272a"/><circle cx="184.972" cy="226.364" r="3.6" fill="#19272a"/><circle cx="203.867" cy="193.636" r="3.6" fill="#19272a"/><circle cx="222.762" cy="160.909" r="3.6" fill="#19272a"/><circle cx="241.657" cy="128.182" r="3.6" fill="#19272a"/><circle cx="260.552" cy="95.455" r="3.6" fill="#19272a"/><circle cx="279.448" cy="62.727" r="3.6" fill="#19272a"/><circle cx="298.343" cy="30.000" r="3.6" fill="#19272a"/><circle cx="166.077" cy="324.545" r="3.6" fill="#19272a"/><circle cx="184.972" cy="291.818" r="3.6" fill="#19272a"/><circle cx="203.867" cy="259.091" r="3.6" fill="#19272a"/><circle cx="222.762" cy="226.364" r="3.6" fill="#19272a"/><circle cx="241.657" cy="193.636" r="3.6" fill="#19272a"/><circle cx="260.552" cy="160.909" r="3.6" fill="#19272a"/><circle cx="279.448" cy="128.182" r="3.6" fill="#19272a"/><circle cx="298.343" cy="95.455" r="3.6" fill="#19272a"/><circle cx="317.238" cy="62.727" r="3.6" fill="#19272a"/><circle cx="203.867" cy="324.545" r="3.6" fill="#19272a"/><circle cx="222.762" cy="291.818" r="3.6" fill="#19272a"/><circle cx="241.657" cy="259.091" r="3.6" fill="#19272a"/><circle cx="260.552" cy="226.364" r="3.6" fill="#19272a"/><circle cx="279.448" cy="193.636" r="3.6" fill="#19272a"/><circle cx="298.343" cy="160.909" r="3.6" fill="#19272a"/><circle cx="317.238" cy="128.182" r="3.6" fill="#19272a"/><circle cx="336.133" cy="95.455" r="3.6" fill="#19272a"/><circle cx="355.028" cy="62.727" r="3.6" fill="#19272a"/><circle cx="222.762" cy="357.273" r="3.6" fill="#19272a"/><circle cx="241.657" cy="324.545" r="3.6" fill="#19272a"/><circle cx="260.552" cy="291.818" r="3.6" fill="#19272a"/><circle cx="279.448" cy="259.091" r="3.6" fill="#19272a"/><circle cx="298.343" cy="226.364" r="3.6" fill="#19272a"/><circle cx="317.238" cy="193.636" r="3.6" fill="#19272a"/><circle cx="336.133" cy="160.909" r="3.6" fill="#19272a"/><circle cx="355.028" cy="128.182" r="3.6" fill="#19272a"/><circle cx="373.923" cy="95.455" r="3.6" fill="#19272a"/><circle cx="260.552" cy="357.273" r="3.6" fill="#19272a"/><circle cx="279.448" cy="324.545" r="3.6" fill="#19272a"/><circle cx="298.343" cy="291.818" r="3.6" fill="#19272a"/><circle cx="317.238" cy="259.091" r="3.6" fill="#19272a"/><circle cx="336.133" cy="226.364" r="3.6" fill="#19272a"/><circle cx="355.028" cy="193.636" r="3.6" fill="#19272a"/><circle cx="373.923" cy="160.909" r="3.6" fill="#19272a"/><circle cx="392.818" cy="128.182" r="3.6" fill="#19272a"/><circle cx="411.713" cy="95.455" r="3.6" fill="#19272a"/><circle cx="279.448" cy="390.000" r="3.6" fill="#19272a"/><circle cx="298.343" cy="357.273" r="3.6" fill="#19272a"/><circle cx="317.238" cy="324.545" r="3.6" fill="#19272a"/><circle cx="336.133" cy="291.818" r="3.6" fill="#19272a"/><circle cx="355.028" cy="259.091" r="3.6" fill="#19272a"/><circle cx="373.923" cy="226.364" r="3.6" fill="#19272a"/><circle cx="392.818" cy="193.636" r="3.6" fill="#19272a"/><circle cx="411.713" cy="160.909" r="3.6" fill="#19272a"/><circle cx="430.608" cy="128.182" r="3.6" fill="#19272a"/><circle cx="336.133" cy="357.273" r="3.6" fill="#19272a"/><circle cx="355.028" cy="324.545" r="3.6" fill="#19272a"/><circle cx="373.923" cy="291.818" r="3.6" fill="#19272a"/><circle cx="392.818" cy="259.091" r="3.6" fill="#19272a"/><circle cx="411.713" cy="226.364" r="3.6" fill="#19272a"/><circle cx="430.608" cy="193.636" r="3.6" fill="#19272a"/><circle cx="392.818" cy="324.545" r="3.6" fill="#19272a"/><circle cx="411.713" cy="291.818" r="3.6" fill="#19272a"/><circle cx="430.608" cy="259.091" r="3.6" fill="#19272a"/></svg>